<?xml version="1.0" encoding="UTF-8" standalone="no"?>
<!DOCTYPE svg PUBLIC "-//W3C//DTD SVG 1.1//EN" "http://www.w3.org/Graphics/SVG/1.1/DTD/svg11.dtd">
<svg width="100%" height="100%" viewBox="0 0 12 11" version="1.1" xmlns="http://www.w3.org/2000/svg" xmlns:xlink="http://www.w3.org/1999/xlink" xml:space="preserve" xmlns:serif="http://www.serif.com/" style="fill-rule:evenodd;clip-rule:evenodd;stroke-linejoin:round;stroke-miterlimit:2;">
    <rect id="battle" x="-0" y="-0" width="12" height="11" style="fill:none;"/>
    <clipPath id="_clip1">
        <rect x="-0" y="-0" width="12" height="11"/>
    </clipPath>
    <g clip-path="url(#_clip1)">
        <path d="M3.586,5L2.293,3.707C2.259,3.674 2.228,3.638 2.2,3.6C1.473,2.631 1.047,1.303 1.047,1.303C0.934,0.947 1.029,0.557 1.293,0.293C1.557,0.029 1.947,-0.066 2.303,0.047C2.303,0.047 3.631,0.473 4.6,1.2C4.638,1.228 4.674,1.259 4.707,1.293L6,2.586L7.293,1.293C7.326,1.259 7.362,1.228 7.4,1.2C8.369,0.473 9.697,0.047 9.697,0.047C10.053,-0.066 10.443,0.029 10.707,0.293C10.971,0.557 11.066,0.947 10.953,1.303C10.953,1.303 10.527,2.631 9.8,3.6C9.771,3.638 9.74,3.674 9.707,3.707L8.414,5L8.609,5.195L9.044,4.76C9.288,4.515 9.642,4.414 9.978,4.493C10.315,4.572 10.587,4.819 10.698,5.147C10.698,5.147 10.982,6.046 10.971,6.537C10.971,6.537 10.951,6.847 10.893,6.988C10.83,7.141 10.59,7.456 10.59,7.456L11.032,7.894C11.032,7.894 11.626,8.131 11.723,8.32C11.856,8.578 12,8.609 12,9.5C11.996,9.897 11.952,10.453 11.702,10.702C11.452,10.951 10.901,10.992 10.5,10.992C9.633,10.992 9.559,10.84 9.298,10.702C9.106,10.6 8.878,9.982 8.878,9.982L8.465,9.573C8.465,9.573 8.215,9.758 8.078,9.812C7.941,9.866 7.644,9.897 7.644,9.897C7.148,9.926 6.227,9.693 6.227,9.693C6.147,9.671 6.071,9.64 6,9.6C5.929,9.64 5.853,9.671 5.773,9.693C5.773,9.693 4.852,9.926 4.356,9.897C4.356,9.897 4.059,9.866 3.922,9.812C3.785,9.758 3.534,9.573 3.534,9.573L3.122,9.982C3.122,9.982 2.894,10.6 2.702,10.702C2.441,10.84 2.367,10.992 1.5,10.992C1.099,10.992 0.548,10.951 0.298,10.702C0.048,10.453 0.004,9.897 -0,9.5C-0,8.609 0.144,8.578 0.277,8.32C0.373,8.131 0.967,7.894 0.967,7.894L1.409,7.456C1.409,7.456 1.17,7.141 1.107,6.988C1.048,6.847 1.029,6.537 1.029,6.537C1.018,6.046 1.302,5.147 1.302,5.147C1.413,4.819 1.685,4.572 2.021,4.493C2.358,4.414 2.712,4.515 2.956,4.76L3.391,5.195L3.586,5ZM6,7.803L6.195,7.609L6,7.414L5.805,7.609L6,7.803Z" style="fill:white;"/>
        <path d="M5.1,5.1L3,3C2.368,2.157 2,1 2,1C2,1 3.157,1.368 4,2L6.1,4.1L8.2,2C9.043,1.368 10.2,1 10.2,1C10.2,1 9.832,2.157 9.2,3L7.1,5.1L8.609,6.609L9.751,5.467C9.751,5.467 10.108,6.524 9.913,6.719L9.173,7.459L10.527,8.801C10.901,8.815 11.2,9.123 11.2,9.5C11.2,9.886 10.886,10.2 10.5,10.2C10.114,10.2 9.8,9.886 9.8,9.5L9.8,9.488L8.466,8.166L7.797,8.835C7.601,9.03 6.489,8.728 6.489,8.728L7.609,7.609L6.1,6.1L4.591,7.609L5.711,8.728C5.711,8.728 4.599,9.03 4.403,8.835L3.734,8.166L2.4,9.488L2.4,9.5C2.4,9.886 2.086,10.2 1.7,10.2C1.314,10.2 1,9.886 1,9.5C1,9.123 1.299,8.815 1.673,8.801L3.027,7.459L2.287,6.719C2.092,6.524 2.449,5.467 2.449,5.467L3.591,6.609L5.1,5.1Z"/>
    </g>
</svg>
