<?xml version="1.0" encoding="UTF-8" standalone="no"?>
<!DOCTYPE svg PUBLIC "-//W3C//DTD SVG 1.1//EN" "http://www.w3.org/Graphics/SVG/1.1/DTD/svg11.dtd">
<svg width="100%" height="100%" viewBox="0 0 10 7" version="1.1" xmlns="http://www.w3.org/2000/svg" xmlns:xlink="http://www.w3.org/1999/xlink" xml:space="preserve" xmlns:serif="http://www.serif.com/" style="fill-rule:evenodd;clip-rule:evenodd;stroke-linejoin:round;stroke-miterlimit:2;">
    <g transform="matrix(1,0,0,1,-47,-23)">
        <g id="bridge" transform="matrix(1.11111,0,0,0.777778,-5.22222,6.66667)">
            <rect x="47" y="21" width="9" height="9" style="fill:none;"/>
            <clipPath id="_clip1">
                <rect x="47" y="21" width="9" height="9"/>
            </clipPath>
            <g clip-path="url(#_clip1)">
                <g transform="matrix(1,0,0,1,2.66454e-15,-2)">
                    <path d="M54.053,25.571L55.1,25.571C56,25.571 56,25.571 56,26.857L56,30.714C56,32 56,32 55.1,32L47.9,32C47,32 47,32 47,30.714L47,26.857C47,25.571 47,25.571 47.9,25.571L48.977,25.571C48.977,25.571 49.156,23 51.5,23C53.837,23 54.053,25.571 54.053,25.571Z" style="fill:white;"/>
                </g>
                <g transform="matrix(0.9,0,0,1.28571,4.7,-8.57143)">
                    <path d="M56,28L56,29L48,29L48,28L56,28ZM56,26L56,27L53,27L53,26C53,26 53,25 52,25C51,25 51,26 51,26L51,27L48,27L48,26L50,26C50,25 50.388,24 52,24C53.623,24 54,25 54,26L56,26Z"/>
                </g>
            </g>
        </g>
    </g>
</svg>
