<?xml version="1.0" encoding="UTF-8" standalone="no"?>
<!DOCTYPE svg PUBLIC "-//W3C//DTD SVG 1.1//EN" "http://www.w3.org/Graphics/SVG/1.1/DTD/svg11.dtd">
<svg width="100%" height="100%" viewBox="0 0 12 11" version="1.1" xmlns="http://www.w3.org/2000/svg" xmlns:xlink="http://www.w3.org/1999/xlink" xml:space="preserve" xmlns:serif="http://www.serif.com/" style="fill-rule:evenodd;clip-rule:evenodd;stroke-linejoin:round;stroke-miterlimit:2;">
    <g transform="matrix(1,0,0,1,-19,-19)">
        <g id="fortress" transform="matrix(0.923077,0,0,1.57143,1.46154,-9.28571)">
            <rect x="19" y="18" width="13" height="7" style="fill:none;"/>
            <clipPath id="_clip1">
                <rect x="19" y="18" width="13" height="7"/>
            </clipPath>
            <g clip-path="url(#_clip1)">
                <g id="path6" transform="matrix(0.640152,0,0,0.459596,-41.1742,15.2424)">
                    <path d="M94,6.732C94,6.537 94.094,6.351 94.262,6.214C94.43,6.077 94.657,6 94.894,6C98.248,6 110.06,6 113.414,6C113.651,6 113.878,6.077 114.046,6.214C114.213,6.351 114.308,6.537 114.308,6.732C114.308,8.236 114.308,11.538 114.308,11.538L112.615,12.923L112.615,20.499C112.615,20.903 112.215,21.231 111.721,21.231C108.794,21.231 99.514,21.231 96.586,21.231C96.093,21.231 95.692,20.903 95.692,20.499C95.692,18.471 95.692,12.923 95.692,12.923L94,11.538L94,6.732Z" style="fill:white;"/>
                </g>
                <g id="path61" serif:id="path6" transform="matrix(0.640152,0,0,0.459596,-41.1742,15.2424)">
                    <path d="M97.385,12.231L97.385,19.846L102.462,19.846L102.462,17.077C102.462,17.077 102.462,15.692 104.154,15.692C105.846,15.692 105.846,17.077 105.846,17.077L105.846,19.846L110.923,19.846L110.923,12.231L112.615,10.846L112.615,7.385L109.231,7.385L109.231,10.154L105.846,10.154L105.846,7.385L102.462,7.385L102.462,10.154L99.077,10.154L99.077,7.385L95.692,7.385L95.692,10.846L97.385,12.231ZM100.769,13.615L100.769,15.692L99.077,15.692L99.077,13.615C99.077,13.615 99.077,12.923 99.923,12.923C100.769,12.923 100.769,13.615 100.769,13.615ZM109.231,13.615L109.231,15.692L107.538,15.692L107.538,13.615C107.538,13.615 107.538,12.923 108.385,12.923C109.231,12.923 109.231,13.615 109.231,13.615Z"/>
                </g>
            </g>
        </g>
    </g>
</svg>
