<?xml version="1.0" encoding="UTF-8" standalone="no"?>
<!DOCTYPE svg PUBLIC "-//W3C//DTD SVG 1.1//EN" "http://www.w3.org/Graphics/SVG/1.1/DTD/svg11.dtd">
<svg width="100%" height="100%" viewBox="0 0 12 11" version="1.1" xmlns="http://www.w3.org/2000/svg" xmlns:xlink="http://www.w3.org/1999/xlink" xml:space="preserve" xmlns:serif="http://www.serif.com/" style="fill-rule:evenodd;clip-rule:evenodd;stroke-linejoin:round;stroke-miterlimit:2;">
    <g transform="matrix(1,0,0,1,-18,-67)">
        <g id="mine" transform="matrix(0.857143,0,0,0.733333,2.57143,31.0667)">
            <rect x="18" y="49" width="14" height="15" style="fill:none;"/>
            <clipPath id="_clip1">
                <rect x="18" y="49" width="14" height="15"/>
            </clipPath>
            <g clip-path="url(#_clip1)">
                <g transform="matrix(0.648148,0,0,0.850404,-73.6692,43.8976)">
                    <path d="M146.69,7.066L145.933,6.935L145.121,7.076L144.405,7.498C144.405,7.498 143.114,8.648 143.114,8.648L142.64,9.286L142.482,10.009L142.629,10.684L142.109,11.147C142.109,11.147 141.794,11.489 141.794,11.489L141.563,11.876L141.42,12.295L141.371,12.735L141.42,13.175L141.562,13.594L141.794,13.98C141.794,13.98 142.109,14.322 142.109,14.322C142.59,14.751 143.791,15.82 143.791,15.82L144.174,16.101L144.608,16.307L145.079,16.434L145.572,16.478L146.066,16.434L146.537,16.307L146.971,16.101L147.354,15.82C147.354,15.82 147.732,15.484 147.732,15.484C147.732,15.484 147.887,15.621 147.887,15.621C147.887,15.621 147.36,16.091 147.36,16.091C146.561,16.802 145.543,17.317 144.767,17.643C144.762,17.645 144.757,17.647 144.752,17.649L144.174,17.979L143.707,18.414L143.367,18.935L143.173,19.52L143.139,20.13L143.267,20.722L143.546,21.27L143.968,21.751C143.969,21.752 143.97,21.753 143.97,21.753C144.417,22.151 144.929,22.607 145.385,22.997C145.358,22.973 145.896,23.349 145.896,23.349L146.509,23.598L147.17,23.711L147.853,23.682L148.508,23.509L149.091,23.208L149.578,22.793L149.946,22.28C150.321,21.591 150.901,20.678 151.705,19.962L152.232,19.492C152.232,19.492 152.76,19.962 152.76,19.962C153.558,20.674 154.136,21.58 154.502,22.271C154.504,22.276 154.507,22.281 154.509,22.285L154.879,22.8L155.368,23.216L155.952,23.518L156.609,23.692L157.294,23.722L157.958,23.608L158.574,23.359L159.114,22.983C159.115,22.983 159.115,22.982 159.116,22.981C159.562,22.584 160.074,22.127 160.512,21.721C160.485,21.745 160.907,21.266 160.907,21.266L161.186,20.72L161.314,20.131L161.281,19.523L161.087,18.939L160.748,18.42L160.283,17.986L159.707,17.658C158.933,17.324 157.909,16.807 157.105,16.091L156.578,15.621C156.578,15.621 157.632,14.682 157.632,14.682C157.632,14.682 159.96,16.755 159.96,16.755C160.474,17.214 161.249,17.351 161.921,17.103C162.594,16.854 163.032,16.27 163.032,15.621C163.032,13.444 162.337,11.871 161.706,10.892L161.825,10.732L161.983,10.009L161.825,9.286L161.351,8.648C161.351,8.648 160.06,7.498 160.06,7.498L159.344,7.076L158.532,6.935L157.72,7.076L157.541,7.182C156.442,6.62 154.676,6 152.232,6C151.664,6 151.139,6.238 150.804,6.629L150.774,6.602L150.39,6.322L149.957,6.116L149.486,5.989L148.992,5.945L148.498,5.989L148.028,6.116L147.594,6.322L147.21,6.603L146.69,7.066ZM152.998,10.554L152.771,10.934C152.771,10.934 152.456,11.276 152.456,11.275C152.456,11.275 152.078,11.612 152.078,11.612C152.078,11.612 152.232,11.75 152.232,11.75C152.232,11.75 153.287,10.811 153.287,10.811L152.998,10.554Z" style="fill:white;"/>
                </g>
                <g id="path7" transform="matrix(0.648148,0,0,0.850404,-73.6692,43.8976)">
                    <path d="M152.232,7.604C155.832,7.604 157.632,9.207 157.632,9.207C157.632,9.207 158.012,8.869 158.278,8.632C158.418,8.507 158.646,8.507 158.787,8.632C159.13,8.937 159.735,9.477 160.078,9.782C160.218,9.907 160.218,10.11 160.078,10.236C159.812,10.473 159.432,10.811 159.432,10.811C159.432,10.811 161.232,12.414 161.232,15.621L157.632,12.414L154.032,15.621C154.032,15.621 155.243,16.7 155.832,17.225C156.789,18.077 158.001,18.703 158.925,19.102C159.233,19.234 159.449,19.491 159.506,19.791C159.563,20.09 159.454,20.396 159.213,20.611C158.784,21.01 158.281,21.457 157.843,21.847C157.599,22.065 157.252,22.163 156.911,22.111C156.571,22.06 156.28,21.865 156.13,21.588C155.692,20.76 154.989,19.681 154.032,18.828C153.421,18.283 152.232,17.225 152.232,17.225C152.232,17.225 151.044,18.283 150.432,18.828C149.475,19.681 148.773,20.76 148.325,21.583C148.176,21.857 147.888,22.05 147.552,22.101C147.215,22.152 146.872,22.054 146.631,21.839C146.184,21.457 145.681,21.01 145.243,20.619C144.999,20.402 144.889,20.092 144.947,19.789C145.005,19.486 145.224,19.227 145.535,19.093C146.464,18.703 147.675,18.077 148.632,17.225C149.222,16.7 150.432,15.621 150.432,15.621L147.732,13.216C147.732,13.216 146.72,14.118 146.082,14.686C145.947,14.807 145.763,14.874 145.572,14.874C145.381,14.874 145.198,14.807 145.063,14.687C144.582,14.258 143.863,13.617 143.382,13.188C143.247,13.068 143.171,12.905 143.171,12.735C143.171,12.565 143.247,12.401 143.382,12.281C144.02,11.712 145.032,10.811 145.032,10.811C145.032,10.811 144.653,10.473 144.387,10.236C144.246,10.11 144.246,9.907 144.387,9.782C144.73,9.477 145.335,8.937 145.678,8.632C145.818,8.507 146.046,8.507 146.187,8.632C146.453,8.869 146.832,9.207 146.832,9.207C146.832,9.207 147.845,8.305 148.483,7.736C148.618,7.616 148.801,7.548 148.992,7.548C149.183,7.548 149.367,7.616 149.502,7.736C149.983,8.165 150.702,8.806 151.183,9.235C151.318,9.355 151.394,9.518 151.394,9.688C151.394,9.858 151.318,10.021 151.183,10.142C150.545,10.711 149.532,11.612 149.532,11.612L152.232,14.018L155.832,10.811L152.232,7.604Z"/>
                </g>
            </g>
        </g>
    </g>
</svg>
