<?xml version="1.0" encoding="UTF-8" standalone="no"?>
<!DOCTYPE svg PUBLIC "-//W3C//DTD SVG 1.1//EN" "http://www.w3.org/Graphics/SVG/1.1/DTD/svg11.dtd">
<svg width="100%" height="100%" viewBox="0 0 13 11" version="1.1" xmlns="http://www.w3.org/2000/svg" xmlns:xlink="http://www.w3.org/1999/xlink" xml:space="preserve" xmlns:serif="http://www.serif.com/" style="fill-rule:evenodd;clip-rule:evenodd;stroke-linejoin:round;stroke-miterlimit:2;">
    <g transform="matrix(1,0,0,1,-5,-19)">
        <g id="ruin" transform="matrix(1.18182,0,0,1,-36.3636,-48)">
            <rect x="35" y="67" width="11" height="11" style="fill:none;"/>
            <clipPath id="_clip1">
                <rect x="35" y="67" width="11" height="11"/>
            </clipPath>
            <g clip-path="url(#_clip1)">
                <g transform="matrix(1.07692,0,0,1.16667,-2.46154,-10.8333)">
                    <path d="M43.429,66.714C43.916,66.714 44.214,67.2 44.214,67.571C44.214,68.576 43.429,68.942 43.429,68.942L43.429,73.138C43.647,73.138 43.831,73.399 43.831,73.571L44.214,73.571C44.632,73.571 45,73.902 45,74.429L45,75.286C45,75.581 44.773,76.143 44.214,76.143L35.568,76.143C35.212,76.143 34.786,75.734 34.786,75.286L34.786,74.429C34.786,73.983 35.106,73.571 35.571,73.571L36.001,73.571C36.001,73.385 36.166,73.143 36.357,73.143L36.357,71C36.357,70.473 36.769,70.143 37.143,70.143L37.729,70.143L38.367,69.473C38.367,69.473 38.499,69.286 38.857,69.286C39.325,69.286 39.5,69.458 39.5,70.143L39.5,73.115C39.684,73.115 39.864,73.39 39.864,73.571C39.864,73.39 40.12,73.129 40.286,73.129L40.286,68.942C40.286,68.942 39.5,68.777 39.5,67.571C39.5,67.2 39.845,66.714 40.286,66.714L43.429,66.714Z" style="fill:white;"/>
                </g>
                <g transform="matrix(1.01538,0,0,1,-1.55385,-4.44089e-15)">
                    <path d="M44.333,69L44.333,71L43.322,70.994L42.665,71.771L42.667,69C41.833,69 41.833,68 41.833,68L45.167,68C45.167,68 45.167,69 44.333,69ZM36.833,76L37.667,76C37.667,76 37.667,75 38.5,75L38.5,72L39.333,72L40.167,71L40.167,75C41,75 41,76 41,76L41.833,76C41.833,76 41.833,75 42.667,75L42.667,73L43.5,72L44.333,72L44.333,75C45.167,75 45.167,76 45.167,76L46,76L46,77L36.833,77L36.833,76Z"/>
                </g>
            </g>
        </g>
    </g>
</svg>
