<?xml version="1.0" encoding="UTF-8" standalone="no"?>
<!DOCTYPE svg PUBLIC "-//W3C//DTD SVG 1.1//EN" "http://www.w3.org/Graphics/SVG/1.1/DTD/svg11.dtd">
<svg width="100%" height="100%" viewBox="0 0 13 14" version="1.1" xmlns="http://www.w3.org/2000/svg" xmlns:xlink="http://www.w3.org/1999/xlink" xml:space="preserve" xmlns:serif="http://www.serif.com/" style="fill-rule:evenodd;clip-rule:evenodd;stroke-linejoin:round;stroke-miterlimit:2;">
    <g transform="matrix(1,0,0,1,-17,-50)">
        <g id="temple" transform="matrix(1.08333,0,0,1.16667,-12.25,-8.33333)">
            <rect x="27" y="50" width="12" height="12" style="fill:none;"/>
            <clipPath id="_clip1">
                <rect x="27" y="50" width="12" height="12"/>
            </clipPath>
            <g clip-path="url(#_clip1)">
                <g transform="matrix(0.923077,0,0,0.857143,28.4031,53.1989)">
                    <path d="M8.98,3.768C10.286,3.958 11.48,5.468 11.48,5.468L11.48,9.797C11.48,9.922 11.43,10.042 11.342,10.13C11.254,10.218 11.134,10.268 11.009,10.268C8.981,10.268 1.002,10.268 -1.041,10.268C-1.168,10.268 -1.29,10.218 -1.38,10.128C-1.47,10.038 -1.52,9.916 -1.52,9.789C-1.52,8.575 -1.52,5.468 -1.52,5.468C-1.52,5.468 -0.407,3.814 0.944,3.769C0.452,3.768 0.48,3.268 0.48,3.268L0.48,2.268C0.48,0.766 3.48,0.736 3.48,0.268L2.975,0.268C2.701,0.268 2.48,0.047 2.48,-0.227C2.48,-0.783 2.48,-1.681 2.48,-2.237C2.48,-2.511 2.701,-2.732 2.975,-2.732C3.226,-2.732 3.48,-2.732 3.48,-2.732L3.48,-3.239C3.48,-3.37 3.532,-3.495 3.625,-3.588C3.717,-3.68 3.843,-3.732 3.973,-3.732C4.53,-3.732 5.43,-3.732 5.987,-3.732C6.117,-3.732 6.243,-3.68 6.335,-3.588C6.428,-3.495 6.48,-3.37 6.48,-3.239C6.48,-2.986 6.48,-2.732 6.48,-2.732L6.985,-2.732C7.259,-2.732 7.48,-2.511 7.48,-2.237C7.48,-1.681 7.48,-0.783 7.48,-0.227C7.48,0.047 7.259,0.268 6.985,0.268C6.734,0.268 6.48,0.268 6.48,0.268C6.48,0.676 9.48,0.826 9.48,2.268L9.48,3.268C9.48,3.268 9.306,3.758 8.98,3.768Z" style="fill:white;"/>
                </g>
                <g transform="matrix(0.923077,0,0,0.857143,28.4031,53.1989)">
                    <path d="M3.48,-1.732L4.48,-1.732L4.48,-2.732L5.48,-2.732L5.48,-1.732L6.48,-1.732L6.48,-0.732L5.48,-0.732L5.48,0.268C5.48,1.384 8.48,1.268 8.48,2.268L8.48,3.029C8.48,3.175 8.397,3.309 8.266,3.375L7.48,3.768L7.48,4.268C9.48,4.268 10.48,5.768 10.48,5.768L10.48,9.268L-0.52,9.268L-0.52,5.768C-0.52,5.768 0.48,4.268 2.48,4.268L2.48,3.768L1.694,3.375C1.563,3.309 1.48,3.175 1.48,3.029L1.48,2.268C1.48,1.268 4.48,1.268 4.48,0.268L4.48,-0.732L3.48,-0.732L3.48,-1.732ZM5.48,6.768L5.48,8.268L6.48,8.268L6.48,3.753C6.48,3.624 6.429,3.501 6.338,3.41C6.247,3.319 6.123,3.268 5.995,3.268L3.965,3.268C3.837,3.268 3.713,3.319 3.622,3.41C3.531,3.501 3.48,3.624 3.48,3.753L3.48,8.268L4.48,8.268L4.48,6.768C4.48,6.768 4.48,6.268 4.98,6.268C5.48,6.268 5.48,6.768 5.48,6.768ZM5.48,4.268L5.48,5.268L4.48,5.268L4.48,4.268L5.48,4.268ZM7.48,5.268L7.48,8.268L9.48,8.268L9.48,6.268C9.48,6.268 8.734,5.268 7.48,5.268ZM0.48,8.268L2.48,8.268L2.48,5.268C1.21,5.268 0.48,6.268 0.48,6.268L0.48,8.268Z"/>
                </g>
            </g>
        </g>
    </g>
</svg>
