<?xml version="1.0" encoding="UTF-8" standalone="no"?>
<!DOCTYPE svg PUBLIC "-//W3C//DTD SVG 1.1//EN" "http://www.w3.org/Graphics/SVG/1.1/DTD/svg11.dtd">
<svg width="100%" height="100%" viewBox="0 0 8 8" version="1.1" xmlns="http://www.w3.org/2000/svg" xmlns:xlink="http://www.w3.org/1999/xlink" xml:space="preserve" xmlns:serif="http://www.serif.com/" style="fill-rule:evenodd;clip-rule:evenodd;stroke-linejoin:round;stroke-miterlimit:2;">
    <g transform="matrix(1,0,0,1,-36,-4)">
        <g id="town" transform="matrix(0.8,0,0,0.8,28,29.6)">
            <rect x="10" y="-32" width="10" height="10" style="fill:none;"/>
            <clipPath id="_clip1">
                <rect x="10" y="-32" width="10" height="10"/>
            </clipPath>
            <g clip-path="url(#_clip1)">
                <g transform="matrix(1.66667,0,0,1.66667,8.33333,-33.6667)">
                    <path d="M7,1.419L7,6.581C7,6.812 6.812,7 6.581,7L1.419,7C1.188,7 1,6.812 1,6.581L1,1.419C1,1.188 1.188,1 1.419,1L6.581,1C6.812,1 7,1.188 7,1.419Z" style="fill:white;"/>
                </g>
                <g transform="matrix(2.5,0,0,1.5,11.25,-30.75)">
                    <rect x="0" y="0" width="3" height="5"/>
                </g>
            </g>
        </g>
    </g>
</svg>
