<?xml version="1.0" encoding="UTF-8" standalone="no"?>
<!DOCTYPE svg PUBLIC "-//W3C//DTD SVG 1.1//EN" "http://www.w3.org/Graphics/SVG/1.1/DTD/svg11.dtd">
<svg width="100%" height="100%" viewBox="0 0 126 256" version="1.1" xmlns="http://www.w3.org/2000/svg" xmlns:xlink="http://www.w3.org/1999/xlink" xml:space="preserve" xmlns:serif="http://www.serif.com/" style="fill-rule:evenodd;clip-rule:evenodd;stroke-linejoin:round;stroke-miterlimit:2;">
    <g id="death-dagger" transform="matrix(0.701048,0,0,0.850007,-145.287,-8.99814)">
        <rect x="207.243" y="10.586" width="179.321" height="301.051" style="fill:none;"/>
        <g transform="matrix(0.142644,0,0,-0.117646,-130.619,354.001)">
            <path d="M2935,2891C2880,2867 2854,2788 2883,2730C2896,2704 2897.75,2699.34 2897.75,2699.34C2890.88,2672.68 2876.45,2551.74 2875.3,2477.7C2874.16,2403.59 2890.87,2254.7 2890.87,2254.7C2890.87,2254.7 2697.15,2260.94 2639,2207C2577,2165 2539,2085 2554,2025C2563,1990 2621.14,1994.88 2636,2031C2674.39,2124.28 2825.6,2106.22 2825.6,2106.22L2826.78,2029.57C2826.78,2029.57 2824,2032 2771,2015C2690,1990 2611,1946 2561,1897C2403,1745 2360,1514 2450,1298C2474,1240 2476,1228 2464,1213C2441,1183 2448,1136 2480,1091C2526,1028 2565,1008 2623,1015C2688,1023 2693.82,983.39 2700,940C2713.91,842.293 2739.43,857.838 2770.77,857.653C2795.79,857.505 2814,846 2830,865C2850,889 2856,883 2857,833C2862,712 2891,584 2941,463C2987,353 3003,347 3044,429C3094,527 3134,683 3144,813C3148,879 3152,887 3170,865C3186,846 3211.22,869.052 3240.31,875.249C3264.14,880.329 3303.7,866.502 3300,932C3295.66,1008.88 3311,1021 3373,1014C3436,1008 3473,1027 3520,1091C3554,1138 3559,1184 3534,1211C3519,1228 3519,1232 3533,1253C3595,1348 3614,1565 3571,1690C3538.42,1784.77 3460.76,1878.96 3399,1930.27C3286.41,2023.8 3175.2,2032.13 3175.2,2032.13L3174.35,2109.31C3174.35,2109.31 3338,2107 3385,2151C3477.61,2224.59 3512.28,2289.29 3456.82,2328.46C3432.45,2345.68 3393.96,2317.72 3372.04,2296.46C3348.68,2273.79 3333.62,2255.33 3260.1,2253.65C3216.37,2252.65 3115.03,2255.66 3115.03,2255.66C3132.03,2329.66 3132.98,2409.94 3132.11,2483.88C3131.3,2553.68 3108.17,2685.61 3105.11,2699.21C3105.11,2699.21 3107,2711 3116,2725C3140,2762 3130,2834 3097,2868C3076,2889 3059,2894 3013,2897C2981,2898 2946,2896 2935,2891ZM2826.86,1949.25L2827.54,1847.12C2813.54,1845.12 2763,1822 2749,1811C2730,1795 2727,1789 2737,1779C2748,1768 2759,1769 2797,1783C2856,1804 2917,1805 2990,1785C3068,1764 3149,1766 3215,1791C3256,1806 3270,1816 3268,1828C3264,1846 3214.09,1848.66 3177.09,1835.66L3176.72,1950.12C3218.38,1950.66 3335.82,1892.22 3357.34,1857.8C3390.69,1804.46 3402.05,1699.76 3390.05,1665.76C3367.05,1597.76 3386,1510 3420,1447C3445,1400 3458.25,1378.4 3450,1322C3443.15,1275.18 3417.63,1239.38 3436.13,1207.78C3449.79,1184.44 3460.8,1165.18 3439.79,1138.77C3430.8,1127.46 3419.3,1114.82 3384.3,1120.82C3262.3,1142.82 3233.51,1114.85 3199.51,1078.85C3157.51,1032.85 3183.99,938.872 3175.85,933.6C3165.47,926.878 3142.22,964.871 3128.22,954.871C3069.22,912.871 3056.7,918.249 3039.43,928.583C3027.42,935.772 3024,956.042 3005.52,956.042C2987.03,956.042 2965.2,925.012 2965.2,925.012C2928.2,904.012 2905.18,934.033 2885.21,948.87C2860.87,966.948 2828.12,940.928 2816.16,933.162C2801.04,923.345 2782.97,930.086 2782.97,930.086C2782.97,930.086 2777.14,940.922 2775.01,959.084C2772.44,980.934 2760.8,998.173 2754.8,1010.17C2738.8,1040.17 2734,1044 2761,1015C2786,989 2805,984 2815,1000C2825.44,1016.7 2820.57,1058.29 2797.8,1090.28C2777.31,1119.09 2737.46,1148.5 2639.46,1130.5C2610.46,1124.5 2581.78,1135.56 2566.39,1146.11C2554.67,1154.14 2531.62,1181.47 2551.38,1206.37C2571.49,1231.72 2538.93,1292.5 2545.65,1331.66C2552.57,1372.07 2566.47,1417.98 2587.47,1456.98C2610.47,1497.98 2611,1514 2607,1555C2600,1621 2582,1660 2557,1660C2541,1660 2539,1655 2544,1628C2564,1521 2552.8,1543.02 2521.28,1481.14C2494.28,1428.14 2493.05,1406.28 2493.05,1406.28C2493.05,1406.28 2483.75,1414.46 2478.85,1437.41C2440.05,1618.91 2552.67,1802.51 2655.83,1882.28C2704.26,1919.73 2807.86,1948.25 2826.86,1949.25Z" style="fill-rule:nonzero;"/>
            <path d="M2755,1480C2681,1469 2667,1463 2634,1429C2609,1403 2605,1391 2605,1342C2605,1267 2614,1239 2646,1207C2667,1185 2682,1180 2720,1180C2810,1180 2906,1233 2931,1297C2949,1345 2942,1406 2914,1439C2893,1464 2831,1494 2810,1489C2807,1488 2782,1484 2755,1480Z" style="fill-rule:nonzero;"/>
            <path d="M3143,1479C3053,1453 3031,1329 3103,1251C3138,1213 3218,1180 3278,1180C3341,1180 3372,1204 3389,1266C3418,1371 3385,1447 3300,1470C3243,1485 3177,1489 3143,1479Z" style="fill-rule:nonzero;"/>
            <path d="M2961,1254C2938,1224 2900,1129 2900,1099C2900,1050 2915,1042 3000,1042C3087,1042 3100,1050 3100,1104C3100,1165 3035,1280 3000,1280C2990,1280 2972,1268 2961,1254Z" style="fill-rule:nonzero;"/>
        </g>
    </g>
</svg>
