<svg xmlns="http://www.w3.org/2000/svg" style="display:none" aria-hidden="true">
  <symbol id="marker-battle" viewBox="0 0 12 11"><path d="M3.586 5 2.293 3.707A1 1 0 0 1 2.2 3.6c-.727-.969-1.153-2.297-1.153-2.297A1.001 1.001 0 0 1 2.303.047S3.631.473 4.6 1.2a1 1 0 0 1 .107.093L6 2.586l1.293-1.293A1 1 0 0 1 7.4 1.2C8.369.473 9.697.047 9.697.047a1.001 1.001 0 0 1 1.256 1.256S10.527 2.631 9.8 3.6q-.044.057-.093.107L8.414 5l.195.195.435-.435a.997.997 0 0 1 1.654.387s.284.899.273 1.39c0 0-.02.31-.078.451-.063.153-.303.468-.303.468l.442.438s.594.237.691.426c.133.258.277.289.277 1.18-.004.397-.048.953-.298 1.202s-.801.29-1.202.29c-.867 0-.941-.152-1.202-.29-.192-.102-.42-.72-.42-.72l-.413-.409s-.25.185-.387.239a2.3 2.3 0 0 1-.434.085c-.496.029-1.417-.204-1.417-.204A1 1 0 0 1 6 9.6q-.107.06-.227.093s-.921.233-1.417.204c0 0-.297-.031-.434-.085s-.388-.239-.388-.239l-.412.409s-.228.618-.42.72c-.261.138-.335.29-1.202.29-.401 0-.952-.041-1.202-.29S.004 9.897 0 9.5c0-.891.144-.922.277-1.18.096-.189.69-.426.69-.426l.442-.438s-.239-.315-.302-.468c-.059-.141-.078-.451-.078-.451-.011-.491.273-1.39.273-1.39a1 1 0 0 1 1.654-.387l.435.435zM6 7.803l.195-.194L6 7.414l-.195.195z" style="fill:#fff"/><path d="M5.1 5.1 3 3c-.632-.843-1-2-1-2s1.157.368 2 1l2.1 2.1L8.2 2c.843-.632 2-1 2-1s-.368 1.157-1 2L7.1 5.1l1.509 1.509 1.142-1.142s.357 1.057.162 1.252l-.74.74 1.354 1.342A.7.7 0 1 1 9.8 9.5v-.012L8.466 8.166l-.669.669c-.196.195-1.308-.107-1.308-.107l1.12-1.119L6.1 6.1 4.591 7.609l1.12 1.119s-1.112.302-1.308.107l-.669-.669L2.4 9.488V9.5a.7.7 0 1 1-.727-.699l1.354-1.342-.74-.74c-.195-.195.162-1.252.162-1.252l1.142 1.142z"/></symbol>
  <symbol id="marker-bridge" viewBox="0 0 10 7"><path d="M54.053 25.571H55.1c.9 0 .9 0 .9 1.286v3.857C56 32 56 32 55.1 32h-7.2c-.9 0-.9 0-.9-1.286v-3.857c0-1.286 0-1.286.9-1.286h1.077S49.156 23 51.5 23c2.337 0 2.553 2.571 2.553 2.571" style="fill:#fff" transform="matrix(1.11111 0 0 .77778 -52.222 -17.889)"/><path d="M9 5v1H1V5zm0-2v1H6V3s0-1-1-1-1 1-1 1v1H1V3h2c0-1 .388-2 2-2 1.623 0 2 1 2 2z"/></symbol>
  <symbol id="marker-camp" viewBox="0 0 8 8"><path d="M4 0s2.222 4 4 6v1.506C8 7.78 7.78 8 7.507 8H.493A.493.493 0 0 1 0 7.506V6c1.778-2 4-6 4-6"/><path d="M38 39.141c1.016-1.016 2.5-3.238 2.5-3.238s1.492 2.247 2.501 3.257l-.001.411h-1.429L40.5 38.143l-1.071 1.428H38z" style="fill:#fff" transform="matrix(1.19964 0 0 1.4 -44.587 -48.4)"/></symbol>
  <symbol id="marker-capital" viewBox="0 0 15 15"><path d="M2.5 31a2.5 1.5 0 1 0 0 3 2.5 1.5 0 1 0 0-3" style="fill:#fff" transform="matrix(3.00001 0 0 5.00001 0 -155)"/><path d="M7.5 1a6.5 6.493 0 1 0 0 12.986A6.5 6.493 0 1 0 7.5 1"/><path d="m5 2 .674 2.073h2.179L6.09 5.354l.673 2.073L5 6.146 3.237 7.427l.673-2.073-1.763-1.281h2.179z" style="fill:#fff" transform="matrix(1.5 0 0 1.5 0 -.1)"/></symbol>
  <symbol id="marker-cave" viewBox="0 0 12 10"><path d="M11.049 5.772 12 8.753v.742a.5.5 0 0 1-.505.505h-11A.493.493 0 0 1 0 9.505v-.752l1.488-3.297.708-.542.927-2.141 1.502-1.002L5.681.26A.313.313 0 0 1 6.12.188l2.871 2.107.924 2.266z" style="fill:#fff"/><path d="M10.312 6.347 11 9H7.51L7 7l-1.252-.989L5 7l-.258 2H1l1.162-2.755.701-.572.921-2.3 1.531-1.006L6 1l2.218 1.78L9.137 5z"/></symbol>
  <symbol id="marker-city" viewBox="0 0 14 14"><path d="M23.5 32a6.5 6 0 1 0 0 12 6.5 6 0 1 0 0-12" style="fill:#fff" transform="matrix(1.07692 0 0 1.16667 -18.308 -37.333)"/><path d="M7 1c3.311 0 6 2.69 6 6s-2.689 6-6 6-6-2.689-6-6 2.69-6 6-6m0 1C4.24 2 2 4.24 2 7s2.24 5 5 5 5-2.24 5-5-2.24-5-5-5m0 1a4.001 4.001 0 0 1 0 8 4.001 4.001 0 0 1 0-8"/></symbol>
  <symbol id="marker-fortress" viewBox="0 0 12 11"><path d="M94 6.732a.67.67 0 0 1 .262-.518c.168-.137.395-.214.632-.214h18.52c.237 0 .464.077.632.214a.67.67 0 0 1 .262.518v4.806l-1.693 1.385v7.576c0 .404-.4.732-.894.732H96.586c-.493 0-.894-.328-.894-.732v-7.576L94 11.538z" style="fill:#fff" transform="matrix(.59091 0 0 .72222 -55.545 -4.333)"/><path d="M2 4.5V10h3V8s0-1 1-1 1 1 1 1v2h3V4.5l1-1V1H9v2H7V1H5v2H3V1H1v2.5zm2 1V7H3V5.5s0-.5.5-.5.5.5.5.5m5 0V7H8V5.5s0-.5.5-.5.5.5.5.5"/></symbol>
  <symbol id="marker-mine" viewBox="0 0 12 11"><path d="m146.69 7.066-.757-.131-.812.141-.716.422-1.291 1.15-.474.638-.158.723.147.675-.52.463-.315.342-.231.387-.143.419-.049.44.049.44.142.419.232.386.315.342 1.682 1.498.383.281.434.206.471.127.493.044.494-.044.471-.127.434-.206.383-.281.378-.336.155.137-.527.47c-.799.711-1.817 1.226-2.593 1.552l-.015.006-.578.33-.467.435-.34.521-.194.585-.034.61.128.592.279.548.422.481.002.002c.447.398.959.854 1.415 1.244a29 29 0 0 1 .511.352l.613.249.661.113.683-.029.655-.173.583-.301.487-.415.368-.513c.375-.689.955-1.602 1.759-2.318l.527-.47.528.47c.798.712 1.376 1.618 1.742 2.309l.007.014.37.515.489.416.584.302.657.174.685.03.664-.114.616-.249.54-.376.002-.002a98 98 0 0 0 1.396-1.26c-.027.024.395-.455.395-.455l.279-.546.128-.589-.033-.608-.194-.584-.339-.519-.465-.434-.576-.328c-.774-.334-1.798-.851-2.602-1.567l-.527-.47 1.054-.939 2.328 2.073c.514.459 1.289.596 1.961.348.673-.249 1.111-.833 1.111-1.482 0-2.177-.695-3.75-1.326-4.729l.119-.16.158-.723-.158-.723-.474-.638-1.291-1.15-.716-.422-.812-.141-.812.141-.179.106C156.442 6.62 154.676 6 152.232 6c-.568 0-1.093.238-1.428.629l-.03-.027-.384-.28-.433-.206-.471-.127-.494-.044-.494.044-.47.127-.434.206-.384.281zm6.308 3.488-.227.38-.315.341-.378.337.154.138 1.055-.939z" style="fill:#fff" transform="matrix(.55556 0 0 .62363 -78.574 -3.742)"/><path d="M6 1c2 0 3 1 3 1l.359-.359a.2.2 0 0 1 .282 0l.718.718a.2.2 0 0 1 0 .283L9.999 3s1 1 1 3L9 4 7 6l1 1c.532.532 1.206.922 1.72 1.17a.585.585 0 0 1 .16.942c-.24.249-.519.527-.762.77a.59.59 0 0 1-.952-.16C7.922 9.204 7.531 8.531 7 8L6 7 5 8c-.532.532-.922 1.205-1.17 1.718a.587.587 0 0 1-.942.16 52 52 0 0 1-.771-.761.59.59 0 0 1 .162-.952C2.795 7.922 3.47 7.532 4 7l1-1-1.5-1.5-.916.917a.4.4 0 0 1-.566 0l-.934-.934a.4.4 0 0 1 0-.566L2 3l-.359-.358a.2.2 0 0 1 0-.283l.718-.718a.2.2 0 0 1 .282 0L3 2l.917-.917a.4.4 0 0 1 .566 0l.934.934a.4.4 0 0 1 0 .566L4.5 3.5 6 5l2-2z"/></symbol>
  <symbol id="marker-mountain" viewBox="0 0 12 11"><path d="M1.435 5.547.3 8.432v.818c0 .818 0 .818.877.818h8.77c.877 0 .877 0 .877-.818v-.818l-.796-1.551-.186-1.59-1.958-1.437-1.442-2.543c-.2-.285-.571-.299-.799.003L4.229 3.061l-1.416.92-.446 1.228z" style="fill:#fff;fill-rule:nonzero" transform="matrix(1.14025 0 0 1.22222 -.342 -1.305)"/><path d="m1.352 6.068-1.052 3v1h10.524v-1l-.852-1.664-.2-1.782-2.105-1.554-1.635-3-1.522 2-1.525 1.005-.58 1.704zm3.158 3H1.352l.772-2.204.968-.286.66-1.813 1.354-.972.809-1.289.415.918-.768 1.162v.484l-.726-.088-.601 1.31.275.778-.25.66-1.041.236-.099.568zm3.157 0H5.562L6.6 8.064l-.297-.966 1.123-.8-.358-.61.576-.252.029-.179 1.046.811.156 1.494-.523.082-.456-.768-.612.9z" style="fill-rule:nonzero" transform="matrix(.9502 0 0 1 .715 -.068)"/></symbol>
  <symbol id="marker-ruin" viewBox="0 0 13 11"><path d="M43.429 66.714c.487 0 .785.486.785.857 0 1.005-.785 1.371-.785 1.371v4.196c.218 0 .402.261.402.433h.383c.418 0 .786.331.786.858v.857c0 .295-.227.857-.786.857h-8.646c-.356 0-.782-.409-.782-.857v-.857c0-.446.32-.858.785-.858h.43c0-.186.165-.428.356-.428V71c0-.527.412-.857.786-.857h.586l.638-.67s.132-.187.49-.187c.468 0 .643.172.643.857v2.972c.184 0 .364.275.364.456 0-.181.256-.442.422-.442v-4.187s-.786-.165-.786-1.371c0-.371.345-.857.786-.857z" style="fill:#fff" transform="matrix(1.27273 0 0 1.16667 -44.273 -77.833)"/><path d="M10 2v2l-1.214-.006-.788.777L8 2C7 2 7 1 7 1h4s0 1-1 1M1 9h1s0-1 1-1V5h1l1-1v4c1 0 1 1 1 1h1s0-1 1-1V6l1-1h1v3c1 0 1 1 1 1h1v1H1z"/></symbol>
  <symbol id="marker-temple" viewBox="0 0 13 14"><path d="M8.98 3.768c1.306.19 2.5 1.7 2.5 1.7v4.329a.47.47 0 0 1-.471.471h-12.05a.48.48 0 0 1-.479-.479V5.468S-.407 3.814.944 3.769C.452 3.768.48 3.268.48 3.268v-1c0-1.502 3-1.532 3-2h-.505a.494.494 0 0 1-.495-.495v-2.01c0-.274.221-.495.495-.495h.505v-.507a.493.493 0 0 1 .493-.493h2.014a.494.494 0 0 1 .493.493v.507h.505c.274 0 .495.221.495.495v2.01a.494.494 0 0 1-.495.495H6.48c0 .408 3 .558 3 2v1s-.174.49-.5.5" style="fill:#fff" transform="translate(1.52 3.732)"/><path d="M5 2h1V1h1v1h1v1H7v1c0 1.116 3 1 3 2v.761c0 .146-.083.28-.214.346L9 7.5V8c2 0 3 1.5 3 1.5V13H1V9.5S2 8 4 8v-.5l-.786-.393A.39.39 0 0 1 3 6.761v-.76c0-1 3-1 3-2V3H5zm2 8.5V12h1V7.485A.484.484 0 0 0 7.515 7h-2.03A.486.486 0 0 0 5 7.485V12h1v-1.5s0-.5.5-.5.5.5.5.5M7 8v1H6V8zm2 1v3h2v-2s-.746-1-2-1m-7 3h2V9c-1.27 0-2 1-2 1z"/></symbol>
  <symbol id="marker-tower" viewBox="0 0 8 11"><path d="M7.696.386 7.611 3.28 6.499 4.343l.97 3.232-.023 2.976-6.883-.05.044-3.112.883-3.216L.42 3.135.397.311z"/><path d="M124 6h14v5.727l-1.75 1.637 1.75 4.909V24h-14v-5.727l1.75-4.909-1.75-1.637zm3.5 6.545-1.75 6.546v3.273h3.5v-2.455s0-1.636 1.75-1.636 1.75 1.636 1.75 1.636v2.455h3.5v-3.273l-1.75-6.546 1.75-1.636V7.636h-1.75v1.637h-1.75V7.636h-3.5v1.637h-1.75V7.636h-1.75v3.273zm4.375.819v2.454h-1.75v-2.454s-.005-.813.875-.819c.882-.002.875.819.875.819" style="fill:#fff" transform="matrix(.57143 0 0 .61111 -70.857 -3.667)"/></symbol>
  <symbol id="marker-town" viewBox="0 0 8 8"><path d="M7 1.419v5.162A.42.42 0 0 1 6.581 7H1.419A.42.42 0 0 1 1 6.581V1.419A.42.42 0 0 1 1.419 1h5.162A.42.42 0 0 1 7 1.419" style="fill:#fff" transform="translate(-1.333 -1.333)scale(1.33334)"/><path d="M1 1h6v6H1z"/></symbol>
  <symbol id="marker-village" viewBox="0 0 8 8"><path d="M53 5a4 4 0 1 0 0 8 4 4 0 1 0 0-8" style="fill:#fff" transform="translate(-49 -5)"/><path d="M4 1a3 3 0 1 0 0 6 3 3 0 1 0 0-6"/></symbol>
</svg>
